<?xml version="1.0" standalone="no"?>
<!DOCTYPE svg PUBLIC "-//W3C//DTD SVG 20010904//EN"
 "http://www.w3.org/TR/2001/REC-SVG-20010904/DTD/svg10.dtd">
<svg version="1.0" xmlns="http://www.w3.org/2000/svg"
 width="227.000000pt" height="50.000000pt" viewBox="0 0 227.000000 50.000000"
 preserveAspectRatio="xMidYMid meet">

<g transform="translate(0.000000,50.000000) scale(0.100000,-0.100000)"
fill="#000000" stroke="none">
<path d="M297 480 c-4 -16 -11 -18 -41 -13 -36 6 -46 -3 -26 -23 7 -7 6 -20
-5 -40 -8 -16 -15 -41 -15 -56 0 -39 18 -81 32 -72 7 4 8 3 4 -5 -10 -15 13
-43 27 -34 5 3 7 1 4 -4 -4 -6 0 -16 7 -23 8 -6 18 -26 22 -43 7 -36 41 -107
50 -107 3 0 4 6 1 14 -3 7 8 27 23 45 16 17 23 31 16 31 -6 0 -33 13 -58 29
l-46 29 5 69 c5 63 21 122 23 83 0 -9 6 -5 15 10 l14 25 9 -25 c9 -24 10 -23
20 20 5 25 10 35 11 23 1 -25 36 -108 48 -116 5 -3 7 24 5 59 l-4 65 45 -43
45 -43 -27 -22 c-24 -21 -25 -24 -8 -33 9 -6 17 -16 17 -23 0 -7 9 -18 19 -24
17 -10 21 -8 31 18 10 24 10 35 0 54 -7 14 -11 28 -7 31 8 9 37 -51 37 -79 0
-37 -41 -91 -78 -102 -22 -6 -31 -14 -27 -23 3 -8 0 -21 -6 -28 -9 -11 -8 -14
5 -14 21 0 52 -30 52 -50 -1 -10 -11 -15 -31 -15 -26 0 -30 4 -30 27 -1 15
-10 37 -20 49 -11 12 -14 19 -7 15 7 -4 12 -1 12 8 0 20 -27 21 -46 2 -19 -20
-18 -25 9 -36 21 -8 21 -9 1 -9 -21 -1 -74 -49 -74 -68 0 -6 39 -11 105 -11
63 -1 105 2 105 8 0 6 7 10 16 10 10 0 12 5 7 13 -4 6 -6 22 -4 35 1 13 -4 25
-13 28 -9 3 -16 10 -16 15 0 14 54 10 88 -7 18 -8 37 -12 43 -9 6 4 57 7 114
6 87 -1 107 2 126 18 23 18 24 18 50 -2 20 -14 35 -18 56 -12 36 9 58 9 111 0
32 -6 53 -3 82 10 39 17 41 17 74 0 43 -23 134 -16 195 14 l42 22 29 -21 c35
-25 87 -35 127 -25 15 3 45 25 66 48 l39 42 -7 -35 c-4 -19 -7 -55 -8 -80 -2
-38 2 -46 24 -59 53 -30 72 -13 149 137 88 170 89 174 56 206 -33 34 -58 33
-98 -3 l-33 -29 -34 30 c-28 25 -39 29 -65 23 -35 -8 -35 -8 -96 1 -32 4 -57
1 -84 -10 -47 -20 -56 -20 -56 -1 0 25 -59 83 -97 96 -48 16 -138 7 -163 -16
-11 -10 -20 -28 -20 -39 0 -36 -15 -50 -38 -37 -31 17 -83 13 -126 -8 -37 -19
-38 -19 -70 0 -26 15 -47 18 -107 15 -41 -2 -84 -7 -97 -11 -19 -6 -24 -3 -29
16 -6 21 -7 22 -14 3 -7 -18 -8 -18 -8 2 -1 11 -8 29 -17 40 -15 18 -15 18
-10 -6 3 -14 6 -37 6 -51 0 -20 8 -30 31 -39 30 -13 31 -15 25 -57 -3 -27 0
-59 9 -85 8 -23 12 -45 9 -48 -10 -10 -139 -9 -165 1 -56 22 -67 110 -19 158
17 16 39 33 50 36 20 6 28 25 11 25 -5 0 -12 29 -16 65 l-7 65 -188 0 c-178 0
-188 -1 -193 -20z m379 -75 c5 -31 -1 -74 -10 -64 -2 2 -7 25 -10 52 -8 55 9
66 20 12z m774 20 c16 -8 34 -24 40 -34 14 -26 13 -74 -2 -89 -9 -9 -7 -16 10
-32 63 -59 -27 -137 -148 -128 l-45 3 -3 139 c-2 105 1 141 10 148 22 13 107
9 138 -7z m-825 -15 c3 -6 -1 -7 -9 -4 -18 7 -21 14 -7 14 6 0 13 -4 16 -10z
m277 -71 c3 -9 9 -9 25 0 12 6 33 11 46 11 42 0 55 -27 59 -120 3 -76 1 -85
-16 -88 -29 -6 -37 11 -41 84 -2 50 -6 69 -16 69 -17 0 -44 -55 -56 -110 -6
-30 -13 -41 -30 -43 -15 -2 -23 4 -28 19 -7 21 3 167 12 182 7 11 41 8 45 -4z
m329 -15 c19 -20 24 -36 24 -76 0 -43 -4 -53 -33 -79 -44 -40 -93 -40 -133 0
-23 23 -29 38 -29 71 0 91 112 146 171 84z m490 0 c19 -20 24 -36 24 -76 0
-43 -4 -53 -33 -79 -44 -40 -93 -40 -133 0 -23 23 -29 38 -29 71 0 91 112 146
171 84z m121 -24 c17 -27 34 -50 37 -50 3 0 18 23 33 50 28 50 62 67 74 37 3
-8 -26 -74 -64 -148 -53 -101 -75 -135 -91 -137 -32 -5 -35 21 -8 75 l25 49
-44 73 c-47 76 -50 101 -14 101 14 0 31 -16 52 -50z m-1605 -2 c-3 -7 -5 -2
-5 12 0 14 2 19 5 13 2 -7 2 -19 0 -25z m313 -8 c0 -5 -2 -10 -4 -10 -3 0 -8
5 -11 10 -3 6 -1 10 4 10 6 0 11 -4 11 -10z"/>
<path d="M1360 350 c0 -34 3 -40 21 -40 31 0 59 19 59 40 0 21 -28 40 -59 40
-18 0 -21 -6 -21 -40z"/>
<path d="M1360 224 c0 -29 3 -34 18 -30 9 2 32 7 50 11 18 4 32 13 32 21 0 16
-39 34 -76 34 -21 0 -24 -5 -24 -36z"/>
<path d="M1136 284 c-29 -29 -15 -94 20 -94 21 0 44 30 44 59 0 47 -34 66 -64
35z"/>
<path d="M1626 284 c-29 -29 -15 -94 20 -94 21 0 44 30 44 59 0 47 -34 66 -64
35z"/>
<path d="M722 480 c7 -10 14 -18 15 -16 6 6 -9 36 -18 36 -5 0 -4 -9 3 -20z"/>
<path d="M320 315 c-6 -8 -10 -22 -7 -32 3 -13 5 -11 7 7 1 23 3 22 14 -10 15
-40 39 -46 44 -11 2 14 0 21 -6 17 -6 -4 -13 -2 -17 4 -3 5 1 10 11 10 13 0
14 3 4 15 -16 19 -34 19 -50 0z"/>
<path d="M684 265 c-14 -22 -15 -29 -4 -50 23 -44 70 -29 70 21 0 40 -12 44
-28 9 -7 -16 -17 -23 -26 -19 -13 5 -13 9 1 30 9 14 13 27 10 30 -3 3 -13 -6
-23 -21z"/>
<path d="M432 202 c-44 -3 -53 -6 -50 -20 2 -9 10 -16 18 -15 8 1 29 5 45 8
24 4 26 3 10 -4 -19 -9 -19 -10 3 -10 21 -1 38 19 30 36 -1 4 -27 7 -56 5z"/>
</g>
</svg>
